<?xml version="1.0" standalone="no"?>
<!DOCTYPE svg PUBLIC "-//W3C//DTD SVG 20010904//EN"
 "http://www.w3.org/TR/2001/REC-SVG-20010904/DTD/svg10.dtd">
<svg version="1.0" xmlns="http://www.w3.org/2000/svg"
 width="700.000000pt" height="700.000000pt" viewBox="0 0 700.000000 700.000000"
 preserveAspectRatio="xMidYMid meet">
<metadata>
Created by potrace 1.14, written by Peter Selinger 2001-2017
</metadata>
<g transform="translate(0.000000,700.000000) scale(0.100000,-0.100000)"
fill="#000000" stroke="none">
<path d="M3278 6995 c-1 -1 -41 -5 -88 -9 -97 -8 -98 -8 -325 -42 -16 -3 -37
-7 -45 -9 -8 -2 -26 -6 -40 -9 -126 -22 -479 -128 -575 -171 -16 -7 -64 -28
-105 -46 -441 -188 -873 -502 -1213 -882 -405 -451 -697 -1028 -812 -1602 -8
-38 -16 -79 -18 -90 -3 -11 -8 -40 -12 -65 -3 -25 -9 -58 -11 -74 -3 -16 -7
-50 -9 -75 -3 -25 -8 -82 -12 -126 -15 -155 -8 -603 12 -703 2 -12 6 -48 9
-80 20 -215 125 -598 236 -864 228 -543 587 -1015 1060 -1393 108 -87 253
-187 386 -268 91 -55 413 -217 431 -217 5 0 27 -9 49 -19 70 -34 390 -136 484
-155 14 -3 69 -14 124 -26 54 -11 113 -22 130 -25 17 -2 51 -7 76 -10 25 -4
56 -8 70 -11 187 -30 697 -24 907 10 21 4 52 8 68 10 187 24 514 114 748 207
354 141 741 380 1016 628 l55 49 -60 62 c-32 34 -63 68 -67 76 -10 17 -16 13
-105 -65 -294 -259 -706 -492 -1103 -625 -195 -65 -454 -123 -634 -142 -27 -3
-79 -9 -115 -14 -68 -9 -576 -5 -645 4 -22 4 -69 11 -105 16 -36 6 -78 13 -95
15 -188 24 -565 136 -765 227 -288 132 -581 312 -770 474 -388 332 -652 665
-861 1084 -175 352 -293 766 -327 1144 -14 164 -5 705 12 735 2 3 7 33 11 66
3 33 10 78 15 100 5 22 11 56 14 75 3 19 12 63 21 97 9 35 18 73 20 85 10 51
80 261 125 374 168 423 411 788 744 1119 542 539 1231 865 1991 942 157 16
646 8 752 -11 10 -2 38 -7 63 -11 85 -13 95 -15 145 -24 516 -100 1003 -327
1430 -667 140 -112 385 -357 499 -499 214 -267 402 -595 517 -901 67 -180 138
-438 163 -599 2 -16 7 -49 11 -73 24 -154 30 -245 30 -482 0 -270 -7 -367 -40
-567 -32 -191 -121 -508 -185 -659 -12 -27 -26 -62 -33 -79 -29 -75 -179 -360
-237 -453 -60 -95 -190 -275 -250 -346 -73 -86 -96 -111 -102 -114 -19 -9 -3
-32 64 -94 l73 -67 39 42 c228 247 460 613 605 954 76 178 167 460 197 606 18
91 54 303 60 352 4 33 9 76 11 95 8 69 10 546 2 610 -4 36 -10 90 -13 120 -9
84 -20 153 -41 265 -111 595 -411 1198 -829 1660 -546 604 -1274 1003 -2046
1121 -25 3 -53 8 -62 10 -9 1 -43 6 -75 9 -32 4 -76 9 -98 12 -44 5 -541 13
-547 8z"/>
<path d="M3417 6584 c-1 -1 -56 -4 -122 -8 -66 -3 -131 -8 -145 -10 -14 -3
-43 -7 -65 -10 -432 -55 -911 -232 -1262 -466 -460 -308 -807 -687 -1051
-1151 -227 -429 -345 -892 -356 -1389 l-1 -45 103 -3 c56 -1 102 1 103 5 1 4
2 35 4 68 4 101 16 279 19 284 2 3 6 29 10 56 3 28 8 60 10 71 2 12 7 37 10
55 3 19 17 81 31 139 250 1033 1062 1850 2095 2110 209 53 442 83 643 84 l58
1 -3 105 -3 105 -38 0 c-21 1 -39 0 -40 -1z"/>
<path d="M4673 6332 c-4 -9 -21 -52 -39 -95 l-32 -78 95 -44 c53 -25 97 -45
99 -45 9 0 234 -133 309 -183 449 -300 806 -727 1029 -1230 l25 -57 88 37 c48
20 91 39 95 42 12 10 -106 254 -190 395 -315 525 -743 922 -1277 1186 -185 91
-194 94 -202 72z"/>
<path d="M3297 6163 c-2 -2 -31 -6 -63 -8 -32 -3 -72 -7 -89 -10 -16 -2 -48
-7 -70 -10 -361 -50 -815 -238 -1130 -468 -188 -137 -396 -333 -515 -487 -19
-24 -43 -53 -53 -65 -25 -27 -158 -228 -192 -290 -130 -231 -216 -446 -274
-685 -60 -243 -81 -431 -76 -680 4 -191 7 -225 30 -380 53 -347 199 -730 393
-1025 45 -68 146 -209 167 -231 5 -6 30 -36 55 -65 191 -227 466 -449 752
-605 166 -91 475 -214 598 -238 14 -2 54 -11 90 -20 68 -16 85 -19 190 -35
208 -32 579 -35 756 -5 396 65 687 168 989 347 99 59 271 178 310 214 11 10
41 35 67 56 64 51 232 218 294 292 225 267 383 543 494 861 37 106 96 331 105
400 4 27 11 67 15 90 34 154 33 555 -1 774 -17 114 -19 123 -46 234 -175 738
-677 1382 -1354 1739 -225 118 -516 219 -754 261 -16 3 -39 8 -50 10 -11 2
-51 7 -90 11 -38 4 -79 10 -90 12 -24 6 -453 12 -458 6z m479 -216 c12 -3 45
-8 75 -12 30 -4 97 -15 149 -26 912 -192 1643 -886 1879 -1784 27 -103 60
-279 69 -375 13 -141 7 -477 -12 -591 -23 -145 -26 -161 -32 -181 -3 -10 -7
-29 -10 -42 -21 -116 -100 -336 -179 -501 -239 -495 -643 -902 -1134 -1144
-132 -65 -337 -143 -436 -166 -56 -13 -240 -54 -243 -54 -5 0 -99 -13 -127
-17 -57 -10 -430 -12 -515 -3 -581 64 -1080 299 -1481 699 -147 147 -172 176
-260 295 -259 350 -426 784 -467 1205 -9 97 -9 426 0 510 50 446 218 866 489
1226 135 178 360 396 543 524 347 243 762 399 1161 436 39 4 72 8 74 10 6 6
432 -3 457 -9z"/>
<path d="M3397 5782 c-2 -4 -3 -178 -2 -387 l0 -380 105 0 104 0 1 375 c1 206
-1 381 -3 388 -3 9 -32 12 -103 11 -54 0 -100 -4 -102 -7z"/>
<path d="M2620 5612 c-47 -20 -86 -37 -88 -38 -2 -1 28 -76 65 -166 l68 -165
75 28 c41 16 85 34 97 40 23 12 24 9 -24 119 -8 19 -31 75 -52 124 -20 49 -41
91 -46 92 -6 1 -48 -14 -95 -34z"/>
<path d="M4264 5614 c-126 -297 -125 -294 -101 -303 12 -5 56 -23 97 -39 l74
-31 69 166 c37 91 67 166 65 168 -3 2 -143 60 -174 72 -9 3 -19 -8 -30 -33z"/>
<path d="M1882 5117 l-72 -73 270 -269 c148 -149 273 -271 278 -273 9 -3 148
136 141 142 -12 14 -507 510 -524 526 -21 20 -21 19 -93 -53z"/>
<path d="M4775 4920 c-149 -148 -271 -273 -272 -277 -4 -10 135 -149 141 -142
13 11 438 434 488 486 l58 59 -73 72 -73 72 -269 -270z"/>
<path d="M3965 4893 c-38 -93 -71 -172 -75 -178 -4 -5 -15 -32 -25 -60 -10
-27 -26 -68 -35 -90 -10 -22 -39 -92 -65 -155 -26 -63 -55 -133 -65 -155 -9
-22 -48 -115 -86 -207 l-68 -168 -51 -1 c-59 -1 -65 -2 -130 -24 -52 -18 -108
-56 -138 -93 -10 -12 -25 -29 -33 -37 -8 -8 -27 -40 -42 -72 -23 -50 -27 -71
-27 -153 0 -87 3 -101 32 -161 41 -82 100 -141 183 -182 59 -29 73 -32 160
-32 87 0 101 3 160 32 82 40 141 99 180 177 l31 61 422 1 c232 1 427 2 432 3
8 1 13 169 6 201 -1 3 -192 5 -426 5 -234 -1 -429 2 -433 5 -4 3 -20 30 -35
62 -16 31 -44 72 -64 92 l-35 35 27 68 c14 37 33 82 40 98 8 17 64 152 125
300 61 149 115 279 119 290 5 11 16 38 26 60 9 22 20 49 25 60 23 54 121 291
123 299 2 9 -156 84 -179 85 -6 1 -41 -74 -79 -166z m-359 -1259 c85 -63 85
-204 -1 -270 -39 -29 -109 -44 -150 -31 -176 56 -164 303 16 336 50 9 90 -2
135 -35z"/>
<path d="M1387 4378 c-20 -51 -34 -95 -30 -99 8 -7 293 -127 314 -132 5 -1 27
40 49 90 35 84 37 94 22 102 -18 9 -310 131 -315 131 -1 0 -19 -42 -40 -92z"/>
<path d="M5535 4455 c-16 -8 -89 -38 -162 -67 l-131 -54 29 -74 c16 -41 34
-85 39 -97 9 -22 10 -22 132 28 139 58 208 88 208 92 0 9 -70 171 -76 177 -5
5 -22 3 -39 -5z"/>
<path d="M1227 3602 c-13 -3 -16 -19 -16 -95 0 -51 3 -97 7 -102 4 -7 144 -10
390 -10 l383 0 -3 105 -3 104 -371 1 c-204 0 -378 -1 -387 -3z"/>
<path d="M5013 3594 c-2 -6 -2 -53 -1 -105 l3 -94 365 0 c201 0 375 1 387 3
20 4 21 9 20 105 l-2 102 -384 0 c-264 0 -385 -3 -388 -11z"/>
<path d="M1520 2793 c-85 -36 -158 -68 -163 -72 -5 -6 52 -165 69 -189 1 -2
17 3 36 11 18 8 80 34 138 57 58 23 117 48 132 56 l26 14 -35 87 c-19 49 -38
91 -42 94 -3 4 -76 -22 -161 -58z"/>
<path d="M5310 2835 c-5 -13 -23 -56 -39 -95 l-30 -70 42 -20 c65 -30 290
-121 292 -118 20 35 73 184 68 189 -5 5 -79 38 -166 73 l-158 65 -9 -24z"/>
<path d="M2084 2230 c-148 -149 -270 -272 -271 -273 -1 -2 30 -35 70 -75 l73
-72 269 270 c149 149 272 273 274 276 5 5 -129 144 -139 144 -3 0 -127 -122
-276 -270z"/>
<path d="M4565 2430 c-38 -38 -67 -72 -64 -74 2 -3 125 -127 274 -276 l269
-270 73 72 c40 39 71 73 70 75 -19 22 -543 543 -547 543 -3 0 -37 -31 -75 -70z"/>
<path d="M3399 1983 c-1 -4 -2 -178 -3 -386 -1 -328 1 -378 14 -381 8 -2 55
-3 105 -3 l89 2 0 385 0 385 -102 3 c-56 1 -103 -1 -103 -5z"/>
<path d="M2597 1592 c-37 -90 -66 -165 -65 -166 3 -2 151 -64 175 -73 13 -5
28 23 102 205 50 122 50 123 28 131 -12 5 -44 19 -72 31 -107 47 -91 59 -168
-128z"/>
<path d="M4255 1728 c-38 -16 -80 -33 -92 -38 -21 -9 -21 -10 31 -137 85 -206
85 -205 98 -200 27 10 173 71 176 73 4 3 -127 317 -136 325 -4 4 -38 -7 -77
-23z"/>
<path d="M6374 3438 c-4 -478 -150 -985 -404 -1412 -334 -559 -870 -1004
-1475 -1225 -104 -38 -262 -86 -309 -95 -11 -2 -39 -9 -61 -15 -22 -6 -58 -13
-80 -16 -22 -4 -78 -13 -124 -21 -86 -14 -247 -27 -359 -28 l-63 -1 3 -105 3
-105 60 2 c54 2 188 10 286 18 88 7 293 46 444 85 847 220 1578 819 1970 1615
111 227 176 405 231 635 33 137 51 238 69 380 5 45 17 230 19 295 l1 50 -105
3 -105 3 -1 -63z"/>
<path d="M770 2370 c-36 -16 -77 -34 -92 -39 l-28 -10 19 -43 c287 -664 786
-1195 1436 -1527 50 -26 119 -59 153 -74 l63 -27 8 23 c5 12 23 55 39 94 l31
72 -162 80 c-227 111 -481 278 -632 416 -312 284 -519 556 -690 909 -42 86
-77 156 -78 155 -1 0 -31 -13 -67 -29z"/>
</g>
</svg>
